<?xml version="1.0" encoding="UTF-8" standalone="no"?>
<svg
   xmlns:dc="http://purl.org/dc/elements/1.1/"
   xmlns:cc="http://creativecommons.org/ns#"
   xmlns:rdf="http://www.w3.org/1999/02/22-rdf-syntax-ns#"
   xmlns:svg="http://www.w3.org/2000/svg"
   xmlns="http://www.w3.org/2000/svg"
   xmlns:sodipodi="http://sodipodi.sourceforge.net/DTD/sodipodi-0.dtd"
   xmlns:inkscape="http://www.inkscape.org/namespaces/inkscape"
   inkscape:version="1.0 (4035a4fb49, 2020-05-01)"
   sodipodi:docname="videogame_asset-24px-blue.svg"
   id="svg837"
   version="1.1"
   width="24"
   viewBox="0 0 24 24"
   height="24">
  <metadata
     id="metadata843">
    <rdf:RDF>
      <cc:Work
         rdf:about="">
        <dc:format>image/svg+xml</dc:format>
        <dc:type
           rdf:resource="http://purl.org/dc/dcmitype/StillImage" />
        <dc:title></dc:title>
      </cc:Work>
    </rdf:RDF>
  </metadata>
  <defs
     id="defs841" />
  <sodipodi:namedview
     inkscape:current-layer="svg837"
     inkscape:window-maximized="0"
     inkscape:window-y="0"
     inkscape:window-x="2024"
     inkscape:cy="12"
     inkscape:cx="12"
     inkscape:zoom="34.458333"
     showgrid="false"
     id="namedview839"
     inkscape:window-height="1040"
     inkscape:window-width="1375"
     inkscape:pageshadow="2"
     inkscape:pageopacity="0"
     guidetolerance="10"
     gridtolerance="10"
     objecttolerance="10"
     borderopacity="1"
     bordercolor="#666666"
     pagecolor="#ffffff" />
  <path
     id="path833"
     fill="none"
     d="M0 0v24h24V0H0zm23 16c0 1.1-.9 2-2 2H3c-1.1 0-2-.9-2-2V8c0-1.1.9-2 2-2h18c1.1 0 2 .9 2 2v8z" />
  <path
     id="path835"
     d="M21 6H3c-1.1 0-2 .9-2 2v8c0 1.1.9 2 2 2h18c1.1 0 2-.9 2-2V8c0-1.1-.9-2-2-2zm-10 7H8v3H6v-3H3v-2h3V8h2v3h3v2zm4.5 2c-.83 0-1.5-.67-1.5-1.5s.67-1.5 1.5-1.5 1.5.67 1.5 1.5-.67 1.5-1.5 1.5zm4-3c-.83 0-1.5-.67-1.5-1.5S18.67 9 19.5 9s1.5.67 1.5 1.5-.67 1.5-1.5 1.5z" />
  <path
     id="path845"
     d="M 2.7813227,17.992246 C 2.1090064,17.920655 1.5053432,17.493259 1.2039416,16.875453 0.98905108,16.434976 1.0020671,16.749325 1.0020671,12 c 0,-4.7493247 -0.013016,-4.434976 0.2018745,-4.8754534 C 1.4621202,6.5953385 1.9456216,6.2039817 2.5392987,6.0436791 2.7173075,5.9956137 3.2501789,5.9927449 12,5.9927449 c 8.749821,0 9.282692,0.00287 9.460701,0.050934 0.593677,0.1603026 1.077179,0.5516594 1.335357,1.0808675 C 23.010949,7.565024 22.997933,7.2506753 22.997933,12 c 0,4.749325 0.01302,4.434976 -0.201875,4.875453 -0.253005,0.518605 -0.690223,0.882794 -1.277789,1.064359 l -0.217181,0.06711 -9.155985,0.0037 c -5.0357922,0.002 -9.2494933,-0.0062 -9.3637803,-0.0184 z M 7.9951632,14.495768 V 13.001209 H 9.4897219 10.984281 V 12 10.998791 H 9.4897219 7.9951632 V 9.5042322 8.0096735 H 7.0084643 6.0217654 V 9.5042322 10.998791 H 4.5126965 3.0036276 V 12 13.001209 h 1.5090689 1.5090689 v 1.494559 1.494558 h 0.9866989 0.9866989 z m 7.9528378,0.419898 c 0.732477,-0.21274 1.178981,-1.002466 0.998849,-1.766653 -0.262013,-1.111558 -1.678927,-1.518035 -2.484283,-0.712679 -0.210836,0.210837 -0.331403,0.419015 -0.401575,0.693387 -0.08988,0.351405 -0.06678,0.648692 0.07536,0.970094 0.310291,0.701621 1.053138,1.036152 1.811651,0.815851 z m 3.929874,-2.974612 c 0.365472,-0.09519 0.707542,-0.353746 0.907566,-0.685982 0.103314,-0.171601 0.210931,-0.546311 0.210931,-0.734433 0,-0.33939 -0.156411,-0.7586138 -0.376194,-1.0083008 -0.578406,-0.6571038 -1.654816,-0.6600058 -2.231698,-0.00602 -0.230634,0.2614607 -0.379827,0.6495058 -0.380796,0.9904368 -0.0019,0.660129 0.466122,1.270883 1.105612,1.442863 0.20738,0.05577 0.553468,0.05642 0.764579,0.0014 z"
     style="fill:#00b0ff;stroke-width:0.00290206" />
</svg>
